<svg xmlns="http://www.w3.org/2000/svg" width="52" height="52" viewBox="0 0 52 52">
    <g fill="none" fill-rule="evenodd" transform="translate(8)">
        <g fill="#373633">
            <path fill-rule="nonzero" d="M15.99 15.09l-.518-6.227a.785.785 0 0 0-.782-.72h-.784v-.786C13.906 6.057 12.85 5 11.55 5a2.358 2.358 0 0 0-2.354 2.357v.786h-.784a.785.785 0 0 0-.781.707l-.628 6.286a.786.786 0 0 0 .78.864h7.431a.785.785 0 0 0 .775-.91zm-5.223-7.733c0-.433.352-.786.784-.786.433 0 .785.353.785.786v.786h-1.57v-.786zM8.652 14.43l.47-4.715h4.846l.392 4.715H8.652z"/>
            <path fill-rule="nonzero" d="M35.996 6.84l-.008-.056-.003-.02a.706.706 0 0 0-.017-.064l-.002-.008a.775.775 0 0 0-.023-.063l-.003-.008a.723.723 0 0 0-.028-.058l-.005-.01a.757.757 0 0 0-.03-.05l-.01-.014a.798.798 0 0 0-.034-.047l-.01-.014a.773.773 0 0 0-.052-.055L29.51.225a.78.78 0 0 0-.058-.05l-.015-.012a.759.759 0 0 0-.046-.033l-.015-.01a.803.803 0 0 0-.05-.029l-.013-.005a.79.79 0 0 0-.057-.027l-.009-.003a.786.786 0 0 0-.063-.022l-.01-.003a.802.802 0 0 0-.064-.016l-.02-.003A.768.768 0 0 0 28.957 0H.783A.776.776 0 0 0 0 .768v46.464c0 .424.35.768.783.768h17.74a.776.776 0 0 0 .782-.768.776.776 0 0 0-.782-.769H1.565V1.537h26.609v5.379c0 .424.35.768.783.768h5.478v38.78H30a.776.776 0 0 0-.782.768c0 .424.35.768.782.768h5.216a.776.776 0 0 0 .783-.768V6.916a.748.748 0 0 0-.004-.077zm-6.257-.693V2.624l3.589 3.523h-3.589z"/>
            <path d="M29.2 22H6.8c-.442 0-.8.448-.8 1s.358 1 .8 1h22.4c.442 0 .8-.448.8-1s-.358-1-.8-1zM29.2 26H6.8c-.442 0-.8.448-.8 1s.358 1 .8 1h22.4c.442 0 .8-.448.8-1s-.358-1-.8-1zM29.2 30H6.8c-.442 0-.8.448-.8 1s.358 1 .8 1h22.4c.442 0 .8-.448.8-1s-.358-1-.8-1zM16.214 34H6.786C6.352 34 6 34.448 6 35s.352 1 .786 1h9.428c.434 0 .786-.448.786-1s-.352-1-.786-1z"/>
            <path fill-rule="nonzero" d="M30 41.3c0-2.923-2.467-5.3-5.5-5.3S19 38.377 19 41.3c0 1.684.82 3.186 2.095 4.157v5.786l.002.024c0 .015 0 .03.002.046l.004.032.007.042.008.034.01.037.012.035.014.035.016.036.016.031.022.036.017.028.028.037.015.02.003.004a.754.754 0 0 0 .056.06l.017.015a.783.783 0 0 0 .045.038l.028.02a.817.817 0 0 0 .112.066l.03.014a.816.816 0 0 0 .05.02l.026.009.057.015.023.006a.794.794 0 0 0 .065.01l.018.003a.831.831 0 0 0 .078.004h.008a.825.825 0 0 0 .113-.01.793.793 0 0 0 .133-.03l.019-.006a.803.803 0 0 0 .109-.046l.003-.003a.775.775 0 0 0 .104-.066l.007-.005 2.128-1.64 2.128 1.64.007.004a.794.794 0 0 0 .104.068.788.788 0 0 0 .113.049c.007.001.013.004.02.006a.81.81 0 0 0 .108.026l.024.004a.812.812 0 0 0 .112.009H27.125a.835.835 0 0 0 .078-.004l.018-.003a.794.794 0 0 0 .065-.01l.022-.006a.769.769 0 0 0 .057-.015l.027-.01a.91.91 0 0 0 .05-.019l.029-.014a.815.815 0 0 0 .112-.066l.029-.02a.779.779 0 0 0 .044-.038l.017-.015a.757.757 0 0 0 .057-.06c0-.002.002-.003.003-.004l.015-.02.028-.037.017-.028.022-.036c.006-.01.01-.02.015-.031l.017-.036.013-.035c.005-.011.009-.023.012-.035l.01-.038.009-.034.006-.041.005-.032.002-.046.001-.024v-5.786C29.18 44.486 30 42.984 30 41.3zm-4.998 7.342l-.01-.01-.018-.011a.785.785 0 0 0-.043-.03l-.026-.015-.04-.022c-.01-.006-.022-.01-.033-.015l-.035-.016c-.013-.005-.026-.01-.04-.013-.01-.004-.02-.008-.032-.011a.828.828 0 0 0-.041-.01l-.032-.008a.801.801 0 0 0-.076-.01l-.038-.002-.039-.002-.033.001a.78.78 0 0 0-.043.003l-.03.004a.89.89 0 0 0-.12.024l-.028.01a.803.803 0 0 0-.042.014l-.033.015-.035.016-.04.022-.026.015a.833.833 0 0 0-.042.03l-.018.012-.01.008h-.001l-1.331 1.027v-3.372a5.66 5.66 0 0 0 3.666 0v3.372l-1.33-1.026zm-.502-3.557c-2.166 0-3.929-1.698-3.929-3.785 0-2.088 1.763-3.786 3.929-3.786s3.929 1.698 3.929 3.786c0 2.087-1.763 3.785-3.929 3.785z"/>
            <path fill-rule="nonzero" d="M24.5 39a2.503 2.503 0 0 0-2.5 2.5c0 1.379 1.121 2.5 2.5 2.5s2.5-1.121 2.5-2.5-1.121-2.5-2.5-2.5zm0 3.333a.834.834 0 1 1 .002-1.668.834.834 0 0 1-.002 1.668z"/>
        </g>
        <circle cx="24.5" cy="43.5" r="8.5" fill="#EF7E5D" fill-rule="nonzero" style="mix-blend-mode:darken"/>
    </g>
</svg>
