<svg xmlns="http://www.w3.org/2000/svg" width="52" height="52" viewBox="0 0 52 52">
    <g fill="none" fill-rule="evenodd">
        <g fill="#373633">
            <path d="M11.673 19.451c-1.081-.724-2.648-.559-3.492.368-.29.318-.224.777.146 1.026.156.104.341.155.524.155a.909.909 0 0 0 .672-.28c.266-.293.76-.345 1.1-.117.371.249.907.192 1.196-.126.29-.318.224-.777-.146-1.026zM20.673 17.451c-1.081-.724-2.648-.559-3.492.368-.29.318-.224.778.146 1.026.156.104.341.155.524.155a.909.909 0 0 0 .672-.28c.266-.293.76-.345 1.1-.117.371.249.907.192 1.196-.126.29-.318.224-.777-.146-1.026z"/>
            <path fill-rule="nonzero" d="M18.974 23.882l-.09-.773a1.273 1.273 0 0 0-.449-.841 1.137 1.137 0 0 0-.878-.259l-4.51.587a1.17 1.17 0 0 0-.794.476 1.308 1.308 0 0 0-.244.93l.09.775c.233 2.009 1.964 3.442 3.86 3.195 1.895-.246 3.248-2.081 3.015-4.09zm-3.207 2.438c-1.035.135-1.982-.649-2.109-1.746l-.043-.374 3.756-.489.044.374c.127 1.098-.612 2.1-1.648 2.235z"/>
            <path d="M24.255 3.407C23.502 1.853 22.22.693 20.548.052a.78.78 0 0 0-.967.35c-.826 1.547-2.821 2.648-5.337 2.946l-4.44.524a.745.745 0 0 0-.668.824c.052.405.436.693.856.643l4.44-.524c2.7-.32 4.934-1.47 6.133-3.128 2.502 1.286 3.11 3.982 2.838 6.009-.282 2.107-1.432 3.69-2.798 3.852L5.668 13.314c-1.24.147-2.124 1.237-1.972 2.43l.183 1.44-1.163.137L1.55 8.178a1.766 1.766 0 0 1 .388-1.347c.312-.385.76-.63 1.263-.689l3.726-.44c.421-.05.72-.419.669-.824-.052-.405-.435-.693-.856-.643l-3.726.44C1.136 4.897-.205 6.55.026 8.358l1.205 9.45C.453 18.344.016 19.258.136 20.2c.164 1.279 1.295 2.243 2.631 2.243.104 0 .213-.006.326-.02l1.433-.169.14 1.101c.295 2.308 1.505 4.367 3.408 5.798A9.195 9.195 0 0 0 13.622 31c.371 0 .745-.022 1.12-.066a9.237 9.237 0 0 0 3.264-1.016 8.933 8.933 0 0 0 2.558-2.027.72.72 0 0 0-.095-1.04.788.788 0 0 0-1.082.09 7.416 7.416 0 0 1-2.122 1.683 7.669 7.669 0 0 1-2.71.843 7.664 7.664 0 0 1-5.536-1.478C7.44 26.8 6.435 25.09 6.191 23.175l-.235-1.835a.733.733 0 0 0-.29-.492.788.788 0 0 0-.565-.151l-2.191.26c-.05.005-.099.008-.143.008-.562 0-1.038-.406-1.107-.945-.061-.482.22-.945.686-1.127l.002-.002c.09-.035.186-.06.285-.071l2.195-.26c.421-.05.72-.418.669-.823l-.277-2.173a.71.71 0 0 1 .635-.783l14.175-1.676 1.06 8.31a6.902 6.902 0 0 1-.334 3.185.733.733 0 0 0 .482.936.794.794 0 0 0 .245.039c.32 0 .62-.195.728-.503.434-1.24.57-2.532.403-3.838l-1.07-8.39c1.732-.595 3.05-2.485 3.382-4.96.21-1.563-.029-3.153-.67-4.477zM41.82 39.82c-.845-.928-2.412-1.093-3.493-.369-.37.249-.436.708-.146 1.026.29.318.825.375 1.196.126.34-.228.834-.176 1.1.116.168.185.418.281.672.281.183 0 .368-.05.524-.155.37-.248.436-.708.146-1.026zM32.82 37.82c-.845-.928-2.412-1.093-3.492-.369-.371.249-.437.708-.147 1.026.29.318.825.375 1.196.126.34-.228.833-.176 1.1.116.168.185.418.281.672.281.183 0 .368-.05.524-.155.37-.248.436-.708.146-1.026z"/>
            <path fill-rule="nonzero" d="M36.954 42.596l-4.51-.587c-.315-.04-.627.051-.878.259-.564.466-.432 1.094-.538 1.613-.378 3.259 3.164 5.329 5.568 3.338 1.446-1.196 1.3-2.846 1.395-3.217.08-.69-.385-1.32-1.037-1.406zm-1.325 3.312c-.398.33-.893.475-1.395.41-1.038-.135-1.775-1.134-1.647-2.234l.043-.374 3.756.489c-.046.176.023 1.063-.757 1.709z"/>
            <path d="M49.29 26.736a3.329 3.329 0 0 0-2.23-1.255l-10.284-1.256a1.404 1.404 0 0 1-.964-.57 6.507 6.507 0 0 0-2.8-2.205.75.75 0 0 0-.978.405.743.743 0 0 0 .407.972 5.012 5.012 0 0 1 2.157 1.699 2.907 2.907 0 0 0 1.995 1.177l10.285 1.256a1.844 1.844 0 0 1 1.61 2.05l-1.136 9.211-1.135-.138.18-1.45a2.202 2.202 0 0 0-1.924-2.448L29.91 32.405a4.987 4.987 0 0 1-3.405-1.96 4.94 4.94 0 0 1-.94-3.805c.356-2.183 2.151-3.892 4.365-4.156a.745.745 0 1 0-.178-1.479c-2.873.344-5.202 2.563-5.665 5.396a6.411 6.411 0 0 0 1.22 4.937 6.46 6.46 0 0 0 3.684 2.411l-1.039 8.413a8.679 8.679 0 0 0 .228 3.321.748.748 0 0 0 1.447-.382 7.205 7.205 0 0 1-.19-2.758l1.034-8.37 13.82 1.688a.71.71 0 0 1 .62.79l-.27 2.188a.742.742 0 0 0 .652.83l2.14.261c.09.011.179.034.262.067.466.178.748.645.687 1.142a1.088 1.088 0 0 1-1.215.944l-2.14-.262a.751.751 0 0 0-.834.648l-.228 1.848a7.223 7.223 0 0 1-2.759 4.85 7.295 7.295 0 0 1-5.396 1.488 7.285 7.285 0 0 1-2.853-.968 7.28 7.28 0 0 1-2.155-1.949.751.751 0 0 0-1.046-.159.742.742 0 0 0-.16 1.04 8.768 8.768 0 0 0 2.595 2.347 8.776 8.776 0 0 0 3.437 1.167 8.778 8.778 0 0 0 6.5-1.794 8.7 8.7 0 0 0 3.323-5.84l.137-1.11c1.336.158 1.44.191 1.714.191a2.585 2.585 0 0 0 2.566-2.26A2.556 2.556 0 0 0 48.8 38.71l1.174-9.518a3.293 3.293 0 0 0-.684-2.455zM38.5 6c-.276 0-.5.403-.5.9v2.2c0 .497.224.9.5.9s.5-.403.5-.9V6.9c0-.497-.224-.9-.5-.9zM38.5 12c-.276 0-.5.403-.5.9v2.2c0 .497.224.9.5.9s.5-.403.5-.9v-2.2c0-.497-.224-.9-.5-.9zM42.1 11h-2.2c-.497 0-.9.224-.9.5s.403.5.9.5h2.2c.497 0 .9-.224.9-.5s-.403-.5-.9-.5zM36.1 11h-2.2c-.497 0-.9.224-.9.5s.403.5.9.5h2.2c.497 0 .9-.224.9-.5s-.403-.5-.9-.5zM11.5 36c-.276 0-.5.403-.5.9v2.2c0 .497.224.9.5.9s.5-.403.5-.9v-2.2c0-.497-.224-.9-.5-.9zM11.5 42c-.276 0-.5.403-.5.9v2.2c0 .497.224.9.5.9s.5-.403.5-.9v-2.2c0-.497-.224-.9-.5-.9zM16.1 40h-2.2c-.497 0-.9.224-.9.5s.403.5.9.5h2.2c.497 0 .9-.224.9-.5s-.403-.5-.9-.5zM10.1 40H7.9c-.497 0-.9.224-.9.5s.403.5.9.5h2.2c.497 0 .9-.224.9-.5s-.403-.5-.9-.5z"/>
        </g>
        <path fill="#EF7E5D" fill-rule="nonzero" d="M46 39.05c.667-2.366 0-3.717-2-4.05-3-.5-24 1.104-22-7 1.333-5.403 6.167-7.758 14.5-7.065l11 4.727c1.333.559 2 2.005 2 4.338s-.333 5.35-1 9.05H46z" style="mix-blend-mode:darken"/>
    </g>
</svg>
