<svg xmlns="http://www.w3.org/2000/svg" width="52" height="52" viewBox="0 0 52 52">
    <g fill="none" fill-rule="evenodd">
        <path fill="#000" d="M31.442 19.349a1.21 1.21 0 1 0 0 2.42 1.21 1.21 0 0 0 0-2.42z"/>
        <path fill="#373633" fill-rule="nonzero" d="M50.81 45.065L37.253 31.51a20.13 20.13 0 0 0 3.372-11.197C40.625 9.113 31.513 0 20.312 0 9.113 0 0 9.112 0 20.313c0 11.2 9.112 20.312 20.313 20.312 4.017 0 7.87-1.163 11.196-3.372L35.256 41l.001.002 9.808 9.808A4.036 4.036 0 0 0 47.938 52a4.035 4.035 0 0 0 2.871-1.19A4.034 4.034 0 0 0 52 47.937a4.034 4.034 0 0 0-1.19-2.872zM31.03 35.113a18.125 18.125 0 0 1-10.718 3.48c-10.08 0-18.282-8.2-18.282-18.28 0-10.08 8.201-18.282 18.282-18.282 10.08 0 18.28 8.201 18.28 18.282 0 3.877-1.203 7.583-3.48 10.718a18.37 18.37 0 0 1-4.082 4.082zm2.13.92a20.381 20.381 0 0 0 2.873-2.871l2.881 2.881a24.653 24.653 0 0 1-2.872 2.872l-2.881-2.881zm16.212 13.34a2.018 2.018 0 0 1-1.435.596 2.018 2.018 0 0 1-1.436-.596l-9.019-9.018a26.688 26.688 0 0 0 2.872-2.872l9.019 9.019c.383.383.595.893.595 1.435 0 .543-.212 1.053-.596 1.436z"/>
        <path fill="#373633" fill-rule="nonzero" d="M19.953 3.628c-9.002 0-16.325 7.323-16.325 16.325 0 9.003 7.323 16.326 16.325 16.326 9.003 0 16.326-7.323 16.326-16.326 0-9.002-7.323-16.325-16.326-16.325zm0 30.61c-7.876 0-14.284-6.408-14.284-14.285 0-7.876 6.408-14.284 14.284-14.284 7.877 0 14.285 6.408 14.285 14.284 0 7.877-6.408 14.285-14.285 14.285z"/>
        <path fill="#373633" d="M31.376 16.69c-.848-2.392-2.326-4.437-4.272-5.914-1.993-1.512-4.334-2.31-6.77-2.31-.544 0-.985.477-.985 1.066 0 .59.441 1.067.985 1.067 4.05 0 7.748 2.755 9.203 6.856.15.424.523.685.92.685a.917.917 0 0 0 .353-.072c.508-.211.761-.828.566-1.379z"/>
        <rect width="28" height="8" x="23.967" y="35.473" fill="#EF7E5D" fill-rule="nonzero" rx="4" style="mix-blend-mode:darken" transform="rotate(43 37.967 39.473)"/>
    </g>
</svg>
