<svg xmlns="http://www.w3.org/2000/svg" width="42" height="42" viewBox="0 0 42 42">
    <g fill="#373633" fill-rule="nonzero">
        <path d="M41.802 15.102l-6.774-6.774a.678.678 0 0 0-.358-.187l-7.452-1.355a.677.677 0 0 0-.798.666c-.002.215-.022.43-.058.642l-4.684-1.17v-.218a3.387 3.387 0 1 0-4.065-3.319h1.355A2.032 2.032 0 1 1 21 5.42a.677.677 0 0 0-.677.678v.826l-4.684 1.17a4.022 4.022 0 0 1-.058-.641.677.677 0 0 0-.799-.666L7.331 8.14a.678.678 0 0 0-.358.187L.2 15.102a.677.677 0 0 0 0 .958l5.42 5.419a.677.677 0 0 0 .957 0l1.553-1.553v4.461H3.388a3.377 3.377 0 0 0-2.012 6.097 3.356 3.356 0 0 0 0 5.42A3.377 3.377 0 0 0 3.388 42h24.386c.18 0 .352-.071.48-.198l5.419-5.42a.671.671 0 0 0 .192-.479h.006V19.926l1.553 1.553a.677.677 0 0 0 .958 0l5.42-5.42a.677.677 0 0 0 0-.957zM21 8.149l4.926 1.232A5.527 5.527 0 0 1 21 12.109a5.527 5.527 0 0 1-4.926-2.728L21 8.149zM1.355 27.774c0-1.122.91-2.032 2.033-2.032H18.29a2.032 2.032 0 1 1 0 4.065H3.388a2.032 2.032 0 0 1-2.033-2.033zm0 5.42c0-1.123.91-2.033 2.033-2.033H18.29a2.032 2.032 0 1 1 0 4.065H3.388a2.032 2.032 0 0 1-2.033-2.032zm16.936 7.451H3.388a2.032 2.032 0 1 1 0-4.064H18.29a2.032 2.032 0 1 1 0 4.064zm10.16-.958v-3.106h3.107l-3.106 3.106zm7.452-19.645L31.64 15.78l-.957.958 1.833 1.834v16.655h-4.742a.677.677 0 0 0-.677.677v4.742h-6.114a3.341 3.341 0 0 0-.678-4.742 3.356 3.356 0 0 0 0-5.42 3.377 3.377 0 0 0-2.014-6.096H9.484v-5.816l1.834-1.834-.958-.958-4.263 4.263-4.461-4.461L7.78 9.435l6.503-1.182c.443 2.937 3.286 5.21 6.715 5.21s6.271-2.273 6.714-5.21l6.504 1.182 6.148 6.146-4.462 4.461z"/>
        <path d="M3 27h16v1H3zM2 33h16v1H2zM2 38h16v1H2z"/>
    </g>
</svg>
