<svg xmlns="http://www.w3.org/2000/svg" width="42" height="38" viewBox="0 0 42 38">
    <g fill="#373633" fill-rule="evenodd">
        <path fill-rule="nonzero" d="M39.465 0H2.535C1.138 0 0 1.155 0 2.575V28.47c0 1.42 1.137 2.575 2.536 2.575H15.19v1.873c0 1.718-1.376 3.115-3.068 3.115H9.334a.976.976 0 0 0-.969.984c0 .543.434.983.969.983h23.332c.535 0 .969-.44.969-.983a.976.976 0 0 0-.969-.984h-2.789c-1.69 0-3.067-1.397-3.067-3.115v-1.873h12.654c1.398 0 2.536-1.155 2.536-2.575V2.575C42 1.155 40.863 0 39.465 0zM16.072 36.034a5.105 5.105 0 0 0 1.054-3.116v-1.873h7.748v1.873c0 1.174.395 2.255 1.055 3.116h-9.857zm23.992-7.564a.605.605 0 0 1-.6.608H2.537c-.33 0-.6-.273-.6-.608v-5.168h38.128v5.168zm0-7.135H1.936V2.575c0-.335.27-.608.6-.608h36.929c.33 0 .599.272.599.608v18.76z"/>
        <circle cx="21" cy="26" r="1"/>
        <path d="M22.71 6.29a.993.993 0 0 0-1.405 0l-7.014 7.015a.993.993 0 0 0 1.404 1.404l7.014-7.014a.993.993 0 0 0 0-1.404zM26.757 11.304c-.325-.405-.85-.405-1.175 0l-2.339 2.923c-.324.406-.324 1.063 0 1.469a.754.754 0 0 0 .588.304.754.754 0 0 0 .587-.304l2.339-2.923c.324-.406.324-1.063 0-1.469z"/>
    </g>
</svg>
