<svg xmlns="http://www.w3.org/2000/svg" width="52" height="52" viewBox="0 0 52 52">
    <g fill="none" fill-rule="evenodd">
        <g fill="#373633">
            <path fill-rule="nonzero" d="M50.426 34.582H48.29c.148-.288.246-.605.286-.939.398.072.813-.018 1.152-.266.462-.337.688-.896.591-1.458l-.378-2.184 1.602-1.548a1.48 1.48 0 0 0 .383-1.53 1.488 1.488 0 0 0-1.213-1.02l-2.117-.305V6.906a2.796 2.796 0 0 0-2.793-2.793H11.59a1.487 1.487 0 0 0-1.195-.972l-2.219-.32-.991-1.99A1.492 1.492 0 0 0 5.84 0C5.266 0 4.75.318 4.497.83l-.992 1.991-2.22.32A1.488 1.488 0 0 0 .074 4.16a1.48 1.48 0 0 0 .383 1.53l1.602 1.548-.378 2.184a1.5 1.5 0 0 0 1.477 1.749c.082 0 .164-.01.245-.024v1.827a.762.762 0 1 0 1.524 0V10.44l.914-.477.61.318v22.015c0 .42.34.762.761.762h35.06a1.497 1.497 0 0 0 1.903.437l1.986-1.036.914.477v.376c0 .7-.57 1.269-1.27 1.269H6.195c-.7 0-1.27-.57-1.27-1.27V16.226a.761.761 0 1 0-1.523 0v17.087c0 .458.111.889.307 1.27H1.575c-.868 0-1.575.706-1.575 1.574v.61c0 2.1 1.709 3.808 3.809 3.808h4.832a4.406 4.406 0 0 0-1.075 2.888c0 .832.676 1.51 1.506 1.51h7.178a.762.762 0 1 0 0-1.523H9.09c.007-1.587 1.289-2.875 2.863-2.875h7.696c-.016.14-.025.282-.025.425a1.318 1.318 0 0 0 1.28 1.316c4.202.115 7.48.535 8.35 1.072.4.245.891.623 1.32.961a.762.762 0 0 0 .943-1.196c-.486-.383-1-.778-1.464-1.063-1.511-.93-6.13-1.208-8.896-1.291a2.155 2.155 0 0 1 2.145-1.953h11.18c2.933 0 4.897.625 6.196 1.558.019.016.04.03.06.044 1.395 1.03 2.002 2.42 2.214 3.76L32.564 46.16h-.48a9.951 9.951 0 0 1-4.843-1.26 11.493 11.493 0 0 0-5.585-1.451H19.5a.762.762 0 1 0 0 1.523h2.156c1.691 0 3.366.436 4.844 1.26a11.494 11.494 0 0 0 5.585 1.452h.097l2.134 3.918c.133.246.39.398.669.398h14.042a.762.762 0 0 0 .655-1.152l-3.968-6.652a.762.762 0 0 0-.795-.359l-.472.09c-.21-1.272-.692-2.409-1.42-3.353h5.164c2.1 0 3.809-1.708 3.809-3.808v-.61c0-.868-.706-1.574-1.574-1.574zM5.145 8.609l-1.34.698a.021.021 0 0 1-.005.003l-.61.317.373-2.147a1.49 1.49 0 0 0-.434-1.325L1.562 4.64l2.172-.313c.488-.07.91-.375 1.129-.815L5.84 1.55l.977 1.963c.22.44.642.744 1.13.815l2.171.313-1.567 1.514c-.355.343-.518.839-.433 1.325l.37 2.147-.904-.472-.031-.016-1.017-.53a1.505 1.505 0 0 0-1.391 0zm2.828 2.456a1.492 1.492 0 0 0 1.436-.184c.462-.338.688-.896.591-1.458l-.128-.74H39a.762.762 0 1 0 0-1.523H9.703l1.52-1.47c.02-.017.036-.035.053-.053h34.529c.7 0 1.27.569 1.27 1.27v15.898a1.511 1.511 0 0 0-1.523-.181L45.55 7.921a.762.762 0 0 0-.762-.762h-2.514a.761.761 0 1 0 0 1.524h1.752V24.91l-.202.407-2.219.319a1.488 1.488 0 0 0-1.213 1.02 1.48 1.48 0 0 0 .383 1.53l1.602 1.548-.311 1.8H7.973v-20.47zm38.187 19.87c-.239 0-.478.056-.696.17l-1.953 1.018.372-2.147a1.49 1.49 0 0 0-.434-1.325l-1.567-1.514 2.172-.313c.488-.07.91-.375 1.128-.815l.978-1.963.977 1.963.015.026a1.498 1.498 0 0 0 1.114.788l2.172.314-1.567 1.514c-.356.344-.518.839-.434 1.325l.372 2.147-.608-.317-.007-.003-1.34-.698a1.5 1.5 0 0 0-.694-.17zm1.526 19.542H35.437l-1.632-3 10.873-2.044 3.008 5.044zm2.79-13.711a2.288 2.288 0 0 1-2.285 2.285H41.4c-1.693-1.15-4.011-1.73-6.917-1.73H23.302a3.68 3.68 0 0 0-3.118 1.73H3.809a2.288 2.288 0 0 1-2.285-2.285v-.61a.05.05 0 0 1 .05-.05h48.852a.05.05 0 0 1 .05.05v.61z"/>
            <path d="M19.513 12.831h-7.961c-.412 0-.747.302-.747.675 0 .374.335.676.747.676h7.961c.413 0 .747-.302.747-.676 0-.373-.334-.675-.747-.675zM19.513 15.532h-7.961c-.412 0-.747.303-.747.676 0 .373.335.675.747.675h7.961c.413 0 .747-.302.747-.675 0-.373-.334-.676-.747-.676zM19.513 18.91h-7.961c-.412 0-.747.301-.747.674 0 .374.335.676.747.676h7.961c.413 0 .747-.302.747-.676 0-.373-.334-.675-.747-.675zM19.513 21.61h-7.961c-.412 0-.747.303-.747.676 0 .373.335.675.747.675h7.961c.413 0 .747-.302.747-.675 0-.373-.334-.676-.747-.676zM19.513 24.312h-7.961c-.412 0-.747.302-.747.675 0 .373.335.675.747.675h7.961c.413 0 .747-.302.747-.675 0-.373-.334-.675-.747-.675z"/>
            <path fill-rule="nonzero" d="M39.982 20.635c.24-.364.537-.816.537-1.388s-.298-1.025-.537-1.389c-.116-.175-.236-.357-.268-.476-.035-.133-.022-.36-.01-.579.024-.427.053-.96-.225-1.44-.28-.486-.76-.727-1.146-.921-.193-.097-.392-.197-.485-.29-.093-.093-.193-.292-.29-.485-.194-.386-.435-.866-.92-1.147-.48-.277-1.014-.248-1.442-.224-.219.012-.445.025-.578-.01-.119-.032-.3-.152-.476-.268-.365-.24-.817-.537-1.389-.537-.571 0-1.024.297-1.388.537-.176.116-.358.236-.477.267-.133.036-.36.023-.578.011-.428-.024-.961-.053-1.441.224-.486.281-.727.761-.921 1.147-.097.193-.197.392-.29.485-.092.093-.292.193-.485.29-.385.194-.866.435-1.146.92-.278.48-.248 1.013-.224 1.441.012.22.024.446-.011.579-.032.119-.152.3-.268.476-.24.364-.537.817-.537 1.389 0 .572.298 1.024.537 1.388.116.176.236.358.268.477.035.133.023.359.01.578-.023.428-.053.961.225 1.441.28.486.76.727 1.146.92.193.098.393.198.485.29.093.093.193.293.29.486.194.385.435.865.92 1.146.481.278 1.014.248 1.442.224.219-.012.445-.024.578.011.12.032.3.152.477.268.364.24.817.537 1.388.537.572 0 1.025-.298 1.389-.537.175-.116.357-.236.476-.268.133-.035.36-.023.578-.01.428.023.962.053 1.441-.225.486-.28.727-.76.921-1.146.097-.193.197-.392.29-.485.093-.093.292-.193.485-.29.385-.194.866-.435 1.146-.92.278-.48.249-1.014.225-1.442-.012-.22-.025-.445.01-.578.032-.119.152-.301.268-.477zm-1.256-.827c-.173.264-.37.561-.464.916-.098.365-.077.729-.06 1.05.013.216.03.513-.024.605-.056.096-.324.231-.52.33-.286.143-.61.306-.873.57-.264.264-.427.587-.57.873-.099.196-.233.464-.33.52-.092.053-.389.037-.605.024-.321-.017-.685-.038-1.05.06-.354.095-.652.29-.915.464-.196.13-.44.29-.562.29-.121 0-.365-.16-.562-.29-.262-.173-.56-.37-.915-.464a2.46 2.46 0 0 0-.64-.074c-.142 0-.28.007-.41.014-.216.013-.513.029-.605-.024-.097-.056-.231-.324-.33-.52-.143-.286-.306-.61-.57-.873-.264-.264-.587-.427-.873-.57-.196-.099-.464-.234-.52-.33-.053-.092-.037-.389-.025-.605.018-.321.039-.685-.059-1.05-.095-.354-.29-.652-.464-.916-.13-.196-.29-.44-.29-.561 0-.121.16-.365.29-.562.173-.263.37-.56.464-.915.098-.365.077-.729.06-1.05-.013-.216-.03-.513.024-.605.056-.097.324-.232.52-.33.286-.143.61-.306.873-.57.264-.264.427-.588.57-.873.099-.196.233-.464.33-.52.092-.053.389-.037.605-.025.322.018.685.038 1.05-.06.354-.094.652-.29.915-.463.196-.13.44-.29.562-.29.121 0 .366.16.562.29.263.173.56.37.915.464.365.097.728.077 1.05.06.216-.013.513-.03.605.024.096.056.231.324.33.52.143.285.306.61.57.873.264.264.587.427.873.57.196.098.464.233.52.33.053.092.037.389.024.605-.017.321-.038.685.06 1.05.095.354.29.652.464.915.13.197.29.44.29.562 0 .121-.16.365-.29.561z"/>
            <path d="M31.065 16.883a.675.675 0 1 1-1.351 0 .675.675 0 0 1 1.35 0zM35.792 21.61a.675.675 0 1 1-1.35 0 .675.675 0 0 1 1.35 0zM34.504 16.429l-4.569 4.569a.755.755 0 0 0 1.067 1.067l4.57-4.57a.755.755 0 0 0-1.068-1.066z"/>
        </g>
        <path fill="#EF7E5D" fill-rule="nonzero" d="M7.303 45C6.656 42.852 6.35 37.5 18 37.5s24.458-5 30.5 5c4.028 6.667 4.375 9.833 1.042 9.5H35.29l-2.639-4.5c-.731.367-1.135.534-1.21.5-6.148-2.794-9.381-4.518-11.441-3.863-3.146 1-12.05 3.011-12.697.863z" style="mix-blend-mode:darken"/>
    </g>
</svg>
