<svg xmlns="http://www.w3.org/2000/svg" width="52" height="52" viewBox="0 0 52 52">
    <g fill="none" fill-rule="evenodd">
        <path fill="#373633" d="M38.035 22.921a1.227 1.227 0 0 0-2.28.902c.622 1.577.938 3.243.938 4.952 0 7.427-6.041 13.469-13.468 13.469-7.426 0-13.469-6.042-13.469-13.469 0-7.426 6.043-13.468 13.47-13.468 1.715 0 3.384.318 4.96.945a1.226 1.226 0 1 0 .906-2.28 15.796 15.796 0 0 0-5.867-1.118c-8.779 0-15.922 7.142-15.922 15.921 0 8.78 7.143 15.922 15.922 15.922s15.921-7.143 15.921-15.922c0-2.02-.374-3.989-1.11-5.854z"/>
        <path fill="#373633" d="M45.555 22.374a1.224 1.224 0 0 0-2.354.673c.531 1.855.8 3.782.8 5.728 0 11.456-9.32 20.777-20.776 20.777S2.448 40.232 2.448 28.775C2.448 17.32 11.768 8 23.225 8c1.95 0 3.882.27 5.738.803a1.224 1.224 0 1 0 .676-2.353 23.23 23.23 0 0 0-6.414-.898C10.42 5.55 0 15.969 0 28.775 0 41.581 10.419 52 23.225 52 36.031 52 46.45 41.581 46.45 28.775c0-2.174-.3-4.328-.894-6.401z"/>
        <path fill="#373633" d="M31.81 28.023a1.233 1.233 0 1 0-2.456.22 6.159 6.159 0 0 1-6.128 6.685 6.16 6.16 0 0 1-6.154-6.152 6.16 6.16 0 0 1 6.705-6.128 1.233 1.233 0 1 0 .226-2.456 8.52 8.52 0 0 0-.778-.035c-4.752 0-8.618 3.867-8.618 8.619s3.866 8.617 8.618 8.617c4.752 0 8.618-3.865 8.618-8.617a8.5 8.5 0 0 0-.034-.753z"/>
        <path fill="#373633" fill-rule="nonzero" d="M51.812 8.256a2.45 2.45 0 0 0-2.27-1.516H45.26V2.458a2.45 2.45 0 0 0-1.516-2.27 2.449 2.449 0 0 0-2.677.533l-7.154 7.154a3.659 3.659 0 0 0-1.079 2.605v6.949l-9.98 9.98a1.228 1.228 0 0 0 1.737 1.737l9.98-9.98h6.95a3.66 3.66 0 0 0 2.603-1.079l7.155-7.155a2.448 2.448 0 0 0 .533-2.676zM35.29 10.48c0-.328.128-.636.36-.868l7.154-7.153v5l-7.514 7.514V10.48zm7.098 5.87c-.228.229-.545.36-.868.36h-4.493l7.514-7.514h5l-7.153 7.154z"/>
        <circle cx="23.5" cy="31.5" r="14.5" fill="#ADF3E0" fill-rule="nonzero" style="mix-blend-mode:darken"/>
    </g>
</svg>
