<svg xmlns="http://www.w3.org/2000/svg" width="52" height="52" viewBox="0 0 52 52">
    <g fill="none" fill-rule="evenodd" transform="translate(0 7)">
        <g fill="#000">
            <path fill-rule="nonzero" d="M48.36 16.99l-1.347-5.404a.816.816 0 0 0 .645-.799v-.871a3.43 3.43 0 0 0-3.42-3.43h-6.134V4.687c0-.93-.754-1.688-1.682-1.688H5.157c-.928 0-1.683.757-1.683 1.688V19.5c0 .451.364.817.814.817.45 0 .814-.366.814-.817V4.688c0-.03.025-.054.055-.054h31.265c.03 0 .054.024.054.054V19.5c0 .451.364.817.814.817.45 0 .814-.365.814-.817v-.926H47.713c1.182.001 2.186.78 2.53 1.852h-2.531a.816.816 0 0 0-.814.817v1.742a2.558 2.558 0 0 0 2.55 2.56h.924v3.594h-2.13c-.699-2.026-2.618-3.485-4.873-3.485-2.254 0-4.174 1.459-4.873 3.485h-.392v-6.154a.816.816 0 0 0-.814-.817.816.816 0 0 0-.814.817v6.154H19.583c-.7-2.026-2.619-3.486-4.873-3.486s-4.174 1.46-4.873 3.486h-4.68a.054.054 0 0 1-.055-.055v-1.797H8.63c.45 0 .815-.366.815-.817a.816.816 0 0 0-.815-.817H.814A.816.816 0 0 0 0 26.47c0 .451.365.817.814.817h2.66v1.797c0 .931.755 1.688 1.683 1.688h4.398l-.002.055c0 2.852 2.314 5.173 5.157 5.173s5.156-2.32 5.156-5.173l-.001-.055h18.35l-.002.055c0 2.852 2.313 5.173 5.156 5.173 2.844 0 5.157-2.32 5.157-5.173l-.001-.055h2.66c.45 0 .815-.365.815-.817v-8.712a4.304 4.304 0 0 0-3.64-4.253zM38.104 8.119h6.134c.988 0 1.791.806 1.791 1.797v.054h-7.925V8.12zm0 8.822v-5.337h7.235l1.33 5.337h-8.565zM14.71 34.367a3.538 3.538 0 0 1-3.528-3.54 3.538 3.538 0 0 1 3.528-3.54 3.538 3.538 0 0 1 3.528 3.54 3.538 3.538 0 0 1-3.528 3.54zm28.66 0a3.538 3.538 0 0 1-3.529-3.54 3.538 3.538 0 0 1 3.529-3.54 3.538 3.538 0 0 1 3.528 3.54 3.538 3.538 0 0 1-3.528 3.54zm7.002-10.456h-.923a.925.925 0 0 1-.923-.926v-.926h1.846v1.852z"/>
            <path d="M15 29c-1.103 0-2 .897-2 2s.897 2 2 2 2-.897 2-2-.897-2-2-2zM43 29c-1.103 0-2 .897-2 2s.897 2 2 2 2-.897 2-2-.897-2-2-2zM33.173 26H20.827c-.457 0-.827.224-.827.5s.37.5.827.5h12.346c.457 0 .827-.224.827-.5s-.37-.5-.827-.5zM12.19 23H1.81c-.447 0-.81.224-.81.5s.363.5.81.5h10.38c.447 0 .81-.224.81-.5s-.363-.5-.81-.5zM28.758 11.227a.866.866 0 0 0-1.17 0l-7.352 6.9-3.825-3.59a.866.866 0 0 0-1.169 0 .742.742 0 0 0 0 1.098l4.41 4.138a.852.852 0 0 0 .584.227.852.852 0 0 0 .585-.227l7.937-7.449a.743.743 0 0 0 0-1.097z"/>
        </g>
        <rect width="40" height="21" x="4" fill="#ADF3E0" fill-rule="nonzero" rx="4" style="mix-blend-mode:darken"/>
    </g>
</svg>
